<?xml version="1.0" encoding="utf-8"?>
<!-- Generator: Adobe Illustrator 24.0.1, SVG Export Plug-In . SVG Version: 6.00 Build 0)  -->
<svg version="1.2" baseProfile="tiny" id="Capa_1" xmlns="http://www.w3.org/2000/svg" xmlns:xlink="http://www.w3.org/1999/xlink"
	 x="0px" y="0px" viewBox="0 0 480 480" xml:space="preserve">
<g>
	<g>
		<path fill="#B10000" d="M475.9,229.3l-144-160c-3.1-3.4-7.4-5.3-11.9-5.3h-96c-6.3,0-12,3.7-14.6,9.5c-2.6,5.8-1.5,12.5,2.7,17.2
			L346.5,240L212.1,389.3c-4.2,4.7-5.3,11.5-2.7,17.2c2.6,5.8,8.3,9.5,14.6,9.5h96c4.5,0,8.8-2,11.9-5.3l144-160
			C481.4,244.7,481.4,235.4,475.9,229.3z"/>
	</g>
</g>
<g>
	<g>
		<path fill="#B10000" d="M267.9,229.3l-144-160c-3.1-3.4-7.4-5.3-11.9-5.3H16c-6.3,0-12,3.7-14.6,9.5C-1.2,79.3-0.1,86,4.1,90.7
			L138.5,240L4.1,389.3c-4.2,4.7-5.3,11.5-2.7,17.2C4,412.3,9.7,416,16,416h96c4.5,0,8.8-2,11.9-5.3l144-160
			C273.4,244.7,273.4,235.4,267.9,229.3z"/>
	</g>
</g>
</svg>
