<svg width="10" height="5" viewBox="0 0 10 5" fill="none" xmlns="http://www.w3.org/2000/svg">
<path d="M5.00211 3.31982L1.26098 0.135898C1.15821 0.0482287 1.02081 4.32216e-07 0.874309 4.3862e-07C0.727723 4.45027e-07 0.590406 0.0482287 0.487479 0.135898L0.159837 0.41489C0.0567478 0.502421 -1.91481e-07 0.61943 -1.86031e-07 0.744118C-1.8058e-07 0.868807 0.0567478 0.985676 0.159837 1.07328L4.61398 4.86424C4.71724 4.95218 4.8552 5.00034 5.00187 5C5.14919 5.00034 5.28699 4.95225 5.39033 4.86424L9.84016 1.07681C9.94325 0.989205 10 0.872335 10 0.747578C10 0.622889 9.94325 0.506019 9.84016 0.41835L9.51252 0.139427C9.29927 -0.0420703 8.95211 -0.0420703 8.73894 0.139427L5.00211 3.31982Z" fill="#EBEAF0"/>
</svg>
